<?xml version="1.0" encoding="UTF-8" standalone="no"?>
<!-- Created with Inkscape (http://www.inkscape.org/) -->

<svg
   xmlns:dc="http://purl.org/dc/elements/1.1/"
   xmlns:cc="http://creativecommons.org/ns#"
   xmlns:rdf="http://www.w3.org/1999/02/22-rdf-syntax-ns#"
   xmlns:svg="http://www.w3.org/2000/svg"
   xmlns="http://www.w3.org/2000/svg"
   xmlns:sodipodi="http://sodipodi.sourceforge.net/DTD/sodipodi-0.dtd"
   xmlns:inkscape="http://www.inkscape.org/namespaces/inkscape"
   id="svg3862"
   version="1.1"
   inkscape:version="0.48.4 r9939"
   width="460.62991"
   height="177.16534"
   xml:space="preserve"
   sodipodi:docname="research_process_full.svg"><metadata
     id="metadata3868"><rdf:RDF><cc:Work
         rdf:about=""><dc:format>image/svg+xml</dc:format><dc:type
           rdf:resource="http://purl.org/dc/dcmitype/StillImage" /><dc:title></dc:title></cc:Work></rdf:RDF></metadata><defs
     id="defs3866"><marker
       inkscape:stockid="Arrow1Mend"
       orient="auto"
       refY="0.0"
       refX="0.0"
       id="Arrow1Mend"
       style="overflow:visible;"><path
         id="path3944"
         d="M 0.0,0.0 L 5.0,-5.0 L -12.5,0.0 L 5.0,5.0 L 0.0,0.0 z "
         style="fill-rule:evenodd;stroke:#000000;stroke-width:1.0pt;"
         transform="scale(0.4) rotate(180) translate(10,0)" /></marker><marker
       inkscape:stockid="Arrow2Lend"
       orient="auto"
       refY="0.0"
       refX="0.0"
       id="Arrow2Lend"
       style="overflow:visible;"><path
         id="path3956"
         style="fill-rule:evenodd;stroke-width:0.62500000;stroke-linejoin:round;"
         d="M 8.7185878,4.0337352 L -2.2072895,0.016013256 L 8.7185884,-4.0017078 C 6.9730900,-1.6296469 6.9831476,1.6157441 8.7185878,4.0337352 z "
         transform="scale(1.1) rotate(180) translate(1,0)" /></marker><marker
       inkscape:stockid="Arrow1Lend"
       orient="auto"
       refY="0.0"
       refX="0.0"
       id="Arrow1Lend"
       style="overflow:visible;"><path
         id="path3938"
         d="M 0.0,0.0 L 5.0,-5.0 L -12.5,0.0 L 5.0,5.0 L 0.0,0.0 z "
         style="fill-rule:evenodd;stroke:#000000;stroke-width:1.0pt;"
         transform="scale(0.8) rotate(180) translate(12.5,0)" /></marker><clipPath
       clipPathUnits="userSpaceOnUse"
       id="clipPath3880"><path
         d="m 350,33.935 0,-2.48 -83.828,0 0,-7.371 83.828,0 0,-2.481 14.121,6.16 L 350,33.935 z"
         id="path3882"
         inkscape:connector-curvature="0" /></clipPath><clipPath
       clipPathUnits="userSpaceOnUse"
       id="clipPath3888"><path
         d="M 0,0 630,0 630,57 0,57 0,0 z"
         id="path3890"
         inkscape:connector-curvature="0" /></clipPath><clipPath
       clipPathUnits="userSpaceOnUse"
       id="clipPath3892"><path
         d="M 0,0 630,0 630,57 0,57 0,0 z"
         id="path3894"
         inkscape:connector-curvature="0" /></clipPath><clipPath
       clipPathUnits="userSpaceOnUse"
       id="clipPath3922"><path
         d="m 530.898,33.935 0,-2.48 -83.839,0 0,-7.371 83.839,0 0,-2.481 14.114,6.16 -14.114,6.172 z"
         id="path3924"
         inkscape:connector-curvature="0" /></clipPath><clipPath
       clipPathUnits="userSpaceOnUse"
       id="clipPath3930"><path
         d="M 0,0 630,0 630,57 0,57 0,0 z"
         id="path3932"
         inkscape:connector-curvature="0" /></clipPath><clipPath
       clipPathUnits="userSpaceOnUse"
       id="clipPath3934"><path
         d="M 0,0 630,0 630,57 0,57 0,0 z"
         id="path3936"
         inkscape:connector-curvature="0" /></clipPath><clipPath
       clipPathUnits="userSpaceOnUse"
       id="clipPath3964"><path
         d="m 168.461,33.935 0,-2.48 -83.832,0 0,-7.371 83.832,0 0,-2.481 14.117,6.16 -14.117,6.172 z"
         id="path3966"
         inkscape:connector-curvature="0" /></clipPath><clipPath
       clipPathUnits="userSpaceOnUse"
       id="clipPath3972"><path
         d="M 0,0 630,0 630,57 0,57 0,0 z"
         id="path3974"
         inkscape:connector-curvature="0" /></clipPath><clipPath
       clipPathUnits="userSpaceOnUse"
       id="clipPath3976"><path
         d="M 0,0 630,0 630,57 0,57 0,0 z"
         id="path3978"
         inkscape:connector-curvature="0" /></clipPath><clipPath
       clipPathUnits="userSpaceOnUse"
       id="clipPath4006"><path
         d="m 1.602,44.306 83.676,0 0,-33.082 -83.676,0 0,33.082 z"
         id="path4008"
         inkscape:connector-curvature="0" /></clipPath><clipPath
       clipPathUnits="userSpaceOnUse"
       id="clipPath4014"><path
         d="M 0,0 630,0 630,57 0,57 0,0 z"
         id="path4016"
         inkscape:connector-curvature="0" /></clipPath><clipPath
       clipPathUnits="userSpaceOnUse"
       id="clipPath4018"><path
         d="M 0,0 630,0 630,57 0,57 0,0 z"
         id="path4020"
         inkscape:connector-curvature="0" /></clipPath><clipPath
       clipPathUnits="userSpaceOnUse"
       id="clipPath4046"><path
         d="M 0,0 630,0 630,57 0,57 0,0 z"
         id="path4048"
         inkscape:connector-curvature="0" /></clipPath><clipPath
       clipPathUnits="userSpaceOnUse"
       id="clipPath4066"><path
         d="M 0,0 630,0 630,57 0,57 0,0 z"
         id="path4068"
         inkscape:connector-curvature="0" /></clipPath><clipPath
       clipPathUnits="userSpaceOnUse"
       id="clipPath4088"><path
         d="m 182.57,44.306 83.676,0 0,-33.082 -83.676,0 0,33.082 z"
         id="path4090"
         inkscape:connector-curvature="0" /></clipPath><clipPath
       clipPathUnits="userSpaceOnUse"
       id="clipPath4096"><path
         d="M 0,0 630,0 630,57 0,57 0,0 z"
         id="path4098"
         inkscape:connector-curvature="0" /></clipPath><clipPath
       clipPathUnits="userSpaceOnUse"
       id="clipPath4100"><path
         d="M 0,0 630,0 630,57 0,57 0,0 z"
         id="path4102"
         inkscape:connector-curvature="0" /></clipPath><clipPath
       clipPathUnits="userSpaceOnUse"
       id="clipPath4130"><path
         d="M 0,0 630,0 630,57 0,57 0,0 z"
         id="path4132"
         inkscape:connector-curvature="0" /></clipPath><clipPath
       clipPathUnits="userSpaceOnUse"
       id="clipPath4154"><path
         d="m 363.551,44.306 83.676,0 0,-33.082 -83.676,0 0,33.082 z"
         id="path4156"
         inkscape:connector-curvature="0" /></clipPath><clipPath
       clipPathUnits="userSpaceOnUse"
       id="clipPath4162"><path
         d="M 0,0 630,0 630,57 0,57 0,0 z"
         id="path4164"
         inkscape:connector-curvature="0" /></clipPath><clipPath
       clipPathUnits="userSpaceOnUse"
       id="clipPath4166"><path
         d="M 0,0 630,0 630,57 0,57 0,0 z"
         id="path4168"
         inkscape:connector-curvature="0" /></clipPath><clipPath
       clipPathUnits="userSpaceOnUse"
       id="clipPath4196"><path
         d="M 0,0 630,0 630,57 0,57 0,0 z"
         id="path4198"
         inkscape:connector-curvature="0" /></clipPath><clipPath
       clipPathUnits="userSpaceOnUse"
       id="clipPath4220"><path
         d="m 544.52,43.658 83.676,0 0,-31.781 -83.676,0 0,31.781 z"
         id="path4222"
         inkscape:connector-curvature="0" /></clipPath><clipPath
       clipPathUnits="userSpaceOnUse"
       id="clipPath4228"><path
         d="M 0,0 630,0 630,57 0,57 0,0 z"
         id="path4230"
         inkscape:connector-curvature="0" /></clipPath><clipPath
       clipPathUnits="userSpaceOnUse"
       id="clipPath4232"><path
         d="M 0,0 630,0 630,57 0,57 0,0 z"
         id="path4234"
         inkscape:connector-curvature="0" /></clipPath><clipPath
       clipPathUnits="userSpaceOnUse"
       id="clipPath4262"><path
         d="M 0,0 630,0 630,57 0,57 0,0 z"
         id="path4264"
         inkscape:connector-curvature="0" /></clipPath><clipPath
       clipPathUnits="userSpaceOnUse"
       id="clipPath4292"><path
         d="M 0,0 630,0 630,57 0,57 0,0 z"
         id="path4294"
         inkscape:connector-curvature="0" /></clipPath><clipPath
       clipPathUnits="userSpaceOnUse"
       id="clipPath4310"><path
         d="M 0,0 630,0 630,57 0,57 0,0 z"
         id="path4312"
         inkscape:connector-curvature="0" /></clipPath><clipPath
       clipPathUnits="userSpaceOnUse"
       id="clipPath4338"><path
         d="M 0,0 630,0 630,57 0,57 0,0 z"
         id="path4340"
         inkscape:connector-curvature="0" /></clipPath><clipPath
       clipPathUnits="userSpaceOnUse"
       id="clipPath4356"><path
         d="M 0,0 630,0 630,57 0,57 0,0 z"
         id="path4358"
         inkscape:connector-curvature="0" /></clipPath><clipPath
       clipPathUnits="userSpaceOnUse"
       id="clipPath4384"><path
         d="M 0,0 630,0 630,57 0,57 0,0 z"
         id="path4386"
         inkscape:connector-curvature="0" /></clipPath><clipPath
       clipPathUnits="userSpaceOnUse"
       id="clipPath4402"><path
         d="M 0,0 630,0 630,57 0,57 0,0 z"
         id="path4404"
         inkscape:connector-curvature="0" /></clipPath><marker
       inkscape:stockid="Arrow1Mend"
       orient="auto"
       refY="0"
       refX="0"
       id="Arrow1Mend-8"
       style="overflow:visible"><path
         inkscape:connector-curvature="0"
         id="path3944-7"
         d="M 0,0 5,-5 -12.5,0 5,5 0,0 z"
         style="fill-rule:evenodd;stroke:#000000;stroke-width:1pt"
         transform="matrix(-0.4,0,0,-0.4,-4,0)" /></marker></defs><sodipodi:namedview
     pagecolor="#ffffff"
     bordercolor="#666666"
     borderopacity="1"
     objecttolerance="10"
     gridtolerance="10"
     guidetolerance="10"
     inkscape:pageopacity="0"
     inkscape:pageshadow="2"
     inkscape:window-width="1918"
     inkscape:window-height="1154"
     id="namedview3864"
     showgrid="false"
     inkscape:document-units="cm"
     units="cm"
     inkscape:zoom="2.2768838"
     inkscape:cx="231.61984"
     inkscape:cy="157.05853"
     inkscape:window-x="0"
     inkscape:window-y="0"
     inkscape:window-maximized="1"
     inkscape:current-layer="g3870"
     inkscape:snap-bbox="false"
     inkscape:snap-global="true"
     inkscape:snap-bbox-edge-midpoints="false"
     inkscape:object-nodes="true"
     inkscape:snap-nodes="true"
     inkscape:bbox-paths="true"><inkscape:grid
       type="xygrid"
       id="grid4418"
       empspacing="5"
       visible="true"
       enabled="true"
       snapvisiblegridlinesonly="true"
       units="cm"
       spacingx="0.02cm"
       spacingy="0.02cm" /></sodipodi:namedview><g
     id="g3870"
     inkscape:groupmode="layer"
     inkscape:label="research_process"
     transform="matrix(1.25,0,0,-1.25,0,177.16547)"><path
       style="fill:none;stroke:#000000;stroke-width:1.1338583;stroke-linecap:butt;stroke-linejoin:miter;stroke-miterlimit:4;stroke-opacity:1;stroke-dasharray:2.2677166,2.2677166;stroke-dashoffset:0.22677166;marker-end:url(#Arrow1Mend)"
       d="m 175.74803,99.212699 0,-11.338583 c 0,-7.370078 3.96851,-11.338582 11.33858,-11.338582 l 5.6693,0"
       id="path3161-6"
       inkscape:connector-curvature="0"
       sodipodi:nodetypes="cccc" /><path
       id="path4787-9-89"
       style="font-size:medium;font-style:normal;font-variant:normal;font-weight:normal;font-stretch:normal;text-indent:0;text-align:start;text-decoration:none;line-height:normal;letter-spacing:normal;word-spacing:normal;text-transform:none;direction:ltr;block-progression:tb;writing-mode:lr-tb;text-anchor:start;baseline-shift:baseline;color:#000000;fill:#e6e6e6;fill-opacity:1;stroke:#000000;stroke-width:0.56692916;stroke-miterlimit:4;stroke-opacity:1;stroke-dasharray:none;marker:none;visibility:visible;display:inline;overflow:visible;enable-background:accumulate;font-family:Sans;-inkscape-font-specification:Sans"
       d="m 308.63031,70.556593 0,1.275 8.85,-3.799996 -8.85,-3.775 0,1.25 -8.15687,-0.0199 -2.84275,0.004 c -5.1378,0.007 -7.77322,-1.44006 -9.8125,-3.625 -2.03928,-2.18494 -3.39518,-5.42544 -4.8125,-8.96875 -1.41732,-3.5433 -2.9224,-7.40122 -5.84375,-10.53124 -2.92135,-3.13002 -7.36172,-5.20994 -13.5625,-5.21876 l -2.81227,-0.004 -2.83717,0.004 0,-3.49999 c 0,-2.94449 -2.35551,-5.3 -5.3,-5.3 l -31.9,0 c -2.94449,0 -5.325,2.35551 -5.325,5.3 l 0,12.04999 c 0,2.94448 2.38051,5.325 5.325,5.325 l 31.9,0 c 2.94449,0 5.3,-2.38052 5.3,-5.325 l 0,-3.5 2.83717,0.043 2.81227,7.8e-4 c 5.13779,9.6e-4 7.80447,1.44006 9.84375,3.625 2.03928,2.18494 3.39518,5.3942 4.8125,8.9375 1.41732,3.54331 2.89115,7.40123 5.8125,10.53125 2.92135,3.13002 7.36171,5.251104 13.5625,5.250004 l 2.84275,-5.05e-4 z"
       inkscape:connector-curvature="0"
       sodipodi:nodetypes="ccccccsssssccssssssssccssssscc" /><path
       id="path4787-9"
       style="font-size:medium;font-style:normal;font-variant:normal;font-weight:normal;font-stretch:normal;text-indent:0;text-align:start;text-decoration:none;line-height:normal;letter-spacing:normal;word-spacing:normal;text-transform:none;direction:ltr;block-progression:tb;writing-mode:lr-tb;text-anchor:start;baseline-shift:baseline;color:#000000;fill:#e6e6e6;fill-opacity:1;stroke:#000000;stroke-width:0.56692916;stroke-miterlimit:4;stroke-opacity:1;stroke-dasharray:none;marker:none;visibility:visible;display:inline;overflow:visible;enable-background:accumulate;font-family:Sans;-inkscape-font-specification:Sans"
       d="m 308.63031,82.514471 0,-1.275 8.85,3.8 -8.85,3.775 0,-1.25 -8.15687,0.01987 -2.84275,-0.0037 c -5.1378,-0.0067 -7.77322,1.44006 -9.8125,3.625 -2.03928,2.18494 -3.39518,5.42544 -4.8125,8.968748 -1.41732,3.54331 -2.9224,7.40123 -5.84375,10.53125 -2.92135,3.13002 -7.36172,5.20993 -13.5625,5.21875 l -2.81227,0.004 -2.83717,-0.004 0,3.5 c 0,2.94449 -2.35551,5.3 -5.3,5.3 l -31.9,0 c -2.94449,0 -5.325,-2.35551 -5.325,-5.3 l 0,-12.05 c 0,-2.94448 2.38051,-5.325 5.325,-5.325 l 31.9,0 c 2.94449,0 5.3,2.38052 5.3,5.325 l 0,3.5 2.83717,-0.043 2.81227,-7.8e-4 c 5.13779,-0.001 7.80447,-1.44006 9.84375,-3.625 2.03928,-2.18494 3.39518,-5.39419 4.8125,-8.937498 1.41732,-3.54331 2.89115,-7.40123 5.8125,-10.53125 2.92135,-3.13002 7.36171,-5.2511 13.5625,-5.25 l 2.84275,5.05e-4 z"
       inkscape:connector-curvature="0"
       sodipodi:nodetypes="ccccccsssssccssssssssccssssscc" /><path
       style="fill:#e6e6e6;fill-opacity:1;stroke:#000000;stroke-width:0.56692916;stroke-miterlimit:4;stroke-opacity:1;stroke-dasharray:none"
       d="m 200.91555,87.860534 c -2.94449,0 -5.325,-2.35551 -5.325,-5.3 l 0,-12.05 c 0,-2.94448 2.38051,-5.325 5.325,-5.325 l 31.9,0 c 2.94449,0 5.3,2.38052 5.3,5.325 l 0,3.5 70.51477,0 0,-1.275 8.84999,3.8 -8.84999,3.775 0,-1.25 -70.51477,0 0,3.5 c 0,2.94449 -2.35551,5.3 -5.3,5.3 z"
       id="rect4416-1-8"
       inkscape:connector-curvature="0"
       sodipodi:nodetypes="sssssscccccccsss" /><path
       style="fill:#ffffff;fill-opacity:1;stroke:#000000;stroke-width:0.56692916;stroke-linecap:butt;stroke-linejoin:miter;stroke-miterlimit:4;stroke-opacity:1;stroke-dasharray:none"
       d="m 276.66137,130.3938 23.24414,0 0,-25.51181 c -7.06013,-0.04 -11.19453,-5.621121 -16.44103,-5.669291 -2.36619,-0.0217 -4.67721,0.59533 -6.80311,1.700781 z"
       id="path5311-3-0"
       inkscape:connector-curvature="0"
       sodipodi:nodetypes="cccscc" /><path
       style="fill:#ffffff;fill-opacity:1;stroke:#000000;stroke-width:0.56692916;stroke-linecap:butt;stroke-linejoin:miter;stroke-miterlimit:4;stroke-opacity:1;stroke-dasharray:none"
       d="m 274.39365,127.55915 23.24414,0 0,-25.51181 c -7.06014,-0.04 -11.19452,-5.621121 -16.44102,-5.669291 -2.3662,-0.0217 -4.67721,0.59533 -6.80312,1.70079 z"
       id="path5311-5-7"
       inkscape:connector-curvature="0"
       sodipodi:nodetypes="cccscc" /><path
       style="fill:#ffffff;fill-opacity:1;stroke:#000000;stroke-width:0.56692916;stroke-linecap:butt;stroke-linejoin:miter;stroke-miterlimit:4;stroke-opacity:1;stroke-dasharray:none"
       d="m 272.12598,124.72451 23.24414,0 0,-25.511811 c -7.06014,-0.04 -11.19453,-5.62112 -16.44103,-5.6693 -2.36619,-0.0217 -4.67721,0.59534 -6.80311,1.70079 z"
       id="path5311-9"
       inkscape:connector-curvature="0"
       sodipodi:nodetypes="cccscc" /><text
       xml:space="preserve"
       style="font-size:7.19999981px;font-style:normal;font-variant:normal;font-weight:normal;font-stretch:normal;text-align:center;line-height:150%;letter-spacing:0px;word-spacing:0px;text-anchor:middle;fill:#000000;fill-opacity:1;stroke:none;font-family:CMU Sans Serif;-inkscape-font-specification:CMU Sans Serif"
       x="283.46457"
       y="-114.1736"
       id="text5140-9"
       sodipodi:linespacing="150%"
       transform="scale(1,-1)"><tspan
         sodipodi:role="line"
         id="tspan5142-1"
         x="283.46457"
         y="-114.1736">47</tspan><tspan
         sodipodi:role="line"
         x="283.46457"
         y="-103.3736"
         id="tspan5144-9">papers</tspan></text>
<path
       style="fill:none;stroke:#000000;stroke-width:1.41732287;stroke-linecap:butt;stroke-linejoin:miter;stroke-miterlimit:4;stroke-opacity:1;stroke-dasharray:2.83464575,2.83464575;stroke-dashoffset:1.98425202;marker-end:url(#Arrow1Mend)"
       d="m 102.04724,49.917416 68.0315,52.838484"
       id="path3161"
       inkscape:connector-curvature="0"
       transform="matrix(0.8,0,0,-0.8,0,141.73238)"
       sodipodi:nodetypes="cc" /><path
       style="fill:#e6e6e6;fill-opacity:1;stroke:#000000;stroke-width:0.56692916;stroke-miterlimit:4;stroke-opacity:1;stroke-dasharray:none"
       d="m 8.15,124.72451 c -2.9444881,0 -5.325,-2.35551 -5.325,-5.3 l 0,-12.05 c 0,-2.94448 2.3805119,-5.325 5.325,-5.325 l 40.4,0 c 2.944488,0 5.3,2.38052 5.3,5.325 l 0,3.5 50.375,0 0,-1.275 8.85,3.8 -8.85,3.775 0,-1.25 -50.375,0 0,3.5 c 0,2.94449 -2.355512,5.3 -5.3,5.3 l -40.4,0 z"
       id="rect4416"
       inkscape:connector-curvature="0" /><path
       style="fill:#e6e6e6;fill-opacity:1;stroke:#000000;stroke-width:0.56692916;stroke-miterlimit:4;stroke-opacity:1;stroke-dasharray:none"
       d="m 118.7,124.72451 c -2.94449,0 -5.325,-2.35551 -5.325,-5.3 l 0,-12.05 c 0,-2.94448 2.38051,-5.325 5.325,-5.325 l 31.9,0 c 2.94449,0 5.3,2.38052 5.3,5.325 l 0,3.5 50.375,0 0,-1.275 8.85,3.8 -8.85,3.775 0,-1.25 -50.375,0 0,3.5 c 0,2.94449 -2.35551,5.3 -5.3,5.3 l -31.9,0 z"
       id="rect4416-1"
       inkscape:connector-curvature="0" /><text
       xml:space="preserve"
       style="font-size:7.19999981px;font-style:normal;font-variant:normal;font-weight:normal;font-stretch:normal;text-align:center;line-height:125%;letter-spacing:0px;word-spacing:0px;text-anchor:middle;fill:#000000;fill-opacity:1;stroke:none;font-family:CMU Sans Serif Demi Condensed;-inkscape-font-specification:CMU Sans Serif Demi Condensed"
       x="28.341339"
       y="-116.03615"
       id="text5134"
       sodipodi:linespacing="125%"
       transform="scale(1,-1)"><tspan
         sodipodi:role="line"
         id="tspan5136"
         x="28.341339"
         y="-116.03615"
         style="font-size:7.19999981px;font-style:normal;font-variant:normal;font-weight:500;font-stretch:normal;text-align:center;text-anchor:middle;font-family:CMU Sans Serif;-inkscape-font-specification:CMU Sans Serif Medium">Database</tspan><tspan
         sodipodi:role="line"
         x="28.341339"
         y="-107.03615"
         id="tspan5138"
         style="font-size:7.19999981px;font-style:normal;font-variant:normal;font-weight:500;font-stretch:normal;text-align:center;text-anchor:middle;font-family:CMU Sans Serif;-inkscape-font-specification:CMU Sans Serif Medium">keyword search</tspan></text>
<path
       style="fill:#ffffff;fill-opacity:1;stroke:#000000;stroke-width:0.56692916;stroke-linecap:butt;stroke-linejoin:miter;stroke-miterlimit:4;stroke-opacity:1;stroke-dasharray:none"
       d="m 69.732243,133.22845 23.244135,0 0,-25.51181 c -7.06013,-0.04 -11.194522,-5.62112 -16.441025,-5.66929 -2.366191,-0.0217 -4.677209,0.59533 -6.80311,1.70078 z"
       id="path5311-3"
       inkscape:connector-curvature="0"
       sodipodi:nodetypes="cccscc" /><path
       style="fill:#ffffff;fill-opacity:1;stroke:#000000;stroke-width:0.56692916;stroke-linecap:butt;stroke-linejoin:miter;stroke-miterlimit:4;stroke-opacity:1;stroke-dasharray:none"
       d="m 67.464527,130.3938 23.244139,0 0,-25.51181 c -7.06014,-0.04 -11.194524,-5.621118 -16.441029,-5.669294 -2.366191,-0.02173 -4.677209,0.595334 -6.80311,1.700794 z"
       id="path5311-5"
       inkscape:connector-curvature="0"
       sodipodi:nodetypes="cccscc" /><path
       style="fill:#ffffff;fill-opacity:1;stroke:#000000;stroke-width:0.56692916;stroke-linecap:butt;stroke-linejoin:miter;stroke-miterlimit:4;stroke-opacity:1;stroke-dasharray:none"
       d="m 65.19685,127.55916 23.244138,0 0,-25.51181 c -7.060139,-0.04 -11.194526,-5.621124 -16.441028,-5.6693 -2.366191,-0.02173 -4.677209,0.595334 -6.80311,1.700788 z"
       id="path5311"
       inkscape:connector-curvature="0"
       sodipodi:nodetypes="cccscc" /><text
       xml:space="preserve"
       style="font-size:7.19999981px;font-style:normal;font-variant:normal;font-weight:normal;font-stretch:normal;text-align:center;line-height:150%;letter-spacing:0px;word-spacing:0px;text-anchor:middle;fill:#000000;fill-opacity:1;stroke:none;font-family:CMU Sans Serif;-inkscape-font-specification:CMU Sans Serif"
       x="76.535431"
       y="-117.00826"
       id="text5140"
       sodipodi:linespacing="150%"
       transform="scale(1,-1)"><tspan
         sodipodi:role="line"
         id="tspan5142"
         x="76.535431"
         y="-117.00826">1874</tspan><tspan
         sodipodi:role="line"
         x="76.535431"
         y="-106.20825"
         id="tspan5144">papers</tspan></text>
<text
       xml:space="preserve"
       style="font-size:7.19999981px;font-style:normal;font-variant:normal;font-weight:normal;font-stretch:normal;text-align:center;line-height:125%;letter-spacing:0px;word-spacing:0px;text-anchor:middle;fill:#000000;fill-opacity:1;stroke:none;font-family:CMU Sans Serif Demi Condensed;-inkscape-font-specification:CMU Sans Serif Demi Condensed"
       x="134.65404"
       y="-116.03975"
       id="text5134-7"
       sodipodi:linespacing="125%"
       transform="scale(1,-1)"><tspan
         sodipodi:role="line"
         x="134.65404"
         y="-116.03975"
         id="tspan5138-2"
         style="font-size:7.19999981px;font-style:normal;font-variant:normal;font-weight:500;font-stretch:normal;text-align:center;text-anchor:middle;font-family:CMU Sans Serif;-inkscape-font-specification:CMU Sans Serif Medium">Abstract</tspan><tspan
         sodipodi:role="line"
         x="134.65404"
         y="-107.03975"
         style="font-size:7.19999981px;font-style:normal;font-variant:normal;font-weight:500;font-stretch:normal;text-align:center;text-anchor:middle;font-family:CMU Sans Serif;-inkscape-font-specification:CMU Sans Serif Medium"
         id="tspan5172">filtering</tspan></text>
<path
       style="fill:#ffffff;fill-opacity:1;stroke:#000000;stroke-width:0.56692916;stroke-linecap:butt;stroke-linejoin:miter;stroke-miterlimit:4;stroke-opacity:1;stroke-dasharray:none"
       d="m 171.77948,133.22845 23.24414,0 0,-25.51181 c -7.06013,-0.04 -11.19453,-5.62112 -16.44103,-5.66929 -2.36619,-0.0217 -4.67721,0.59533 -6.80311,1.70078 z"
       id="path5311-3-4"
       inkscape:connector-curvature="0"
       sodipodi:nodetypes="cccscc" /><path
       style="fill:#ffffff;fill-opacity:1;stroke:#000000;stroke-width:0.56692916;stroke-linecap:butt;stroke-linejoin:miter;stroke-miterlimit:4;stroke-opacity:1;stroke-dasharray:none"
       d="m 169.51176,130.3938 23.24414,0 0,-25.51181 c -7.06014,-0.04 -11.19452,-5.621118 -16.44103,-5.669294 -2.36619,-0.02173 -4.6772,0.595334 -6.80311,1.700794 z"
       id="path5311-5-8"
       inkscape:connector-curvature="0"
       sodipodi:nodetypes="cccscc" /><path
       style="fill:#ffffff;fill-opacity:1;stroke:#000000;stroke-width:0.56692916;stroke-linecap:butt;stroke-linejoin:miter;stroke-miterlimit:4;stroke-opacity:1;stroke-dasharray:none"
       d="m 167.24409,127.55916 23.24414,0 0,-25.51181 c -7.06014,-0.04 -11.19453,-5.621124 -16.44103,-5.6693 -2.36619,-0.02173 -4.67721,0.595334 -6.80311,1.700788 z"
       id="path5311-8"
       inkscape:connector-curvature="0"
       sodipodi:nodetypes="cccscc" /><text
       xml:space="preserve"
       style="font-size:7.19999981px;font-style:normal;font-variant:normal;font-weight:normal;font-stretch:normal;text-align:center;line-height:150%;letter-spacing:0px;word-spacing:0px;text-anchor:middle;fill:#000000;fill-opacity:1;stroke:none;font-family:CMU Sans Serif;-inkscape-font-specification:CMU Sans Serif"
       x="178.58269"
       y="-117.00826"
       id="text5140-2"
       sodipodi:linespacing="150%"
       transform="scale(1,-1)"><tspan
         sodipodi:role="line"
         id="tspan5142-6"
         x="178.58269"
         y="-117.00826">170</tspan><tspan
         sodipodi:role="line"
         x="178.58269"
         y="-106.20825"
         id="tspan5144-1">papers</tspan></text>
<text
       xml:space="preserve"
       style="font-size:7.19999981px;font-style:normal;font-variant:normal;font-weight:normal;font-stretch:normal;text-align:center;line-height:125%;letter-spacing:0px;word-spacing:0px;text-anchor:middle;fill:#000000;fill-opacity:1;stroke:none;font-family:CMU Sans Serif Demi Condensed;-inkscape-font-specification:CMU Sans Serif Demi Condensed"
       x="236.4601"
       y="-116.03975"
       id="text5134-7-7"
       sodipodi:linespacing="125%"
       transform="scale(1,-1)"><tspan
         sodipodi:role="line"
         x="236.4601"
         y="-116.03975"
         id="tspan5138-2-3"
         style="font-size:7.19999981px;font-style:normal;font-variant:normal;font-weight:500;font-stretch:normal;text-align:center;text-anchor:middle;font-family:CMU Sans Serif;-inkscape-font-specification:CMU Sans Serif Medium">Full text</tspan><tspan
         sodipodi:role="line"
         x="236.4601"
         y="-107.03975"
         style="font-size:7.19999981px;font-style:normal;font-variant:normal;font-weight:500;font-stretch:normal;text-align:center;text-anchor:middle;font-family:CMU Sans Serif;-inkscape-font-specification:CMU Sans Serif Medium"
         id="tspan5172-3">filtering</tspan></text>
<rect
       style="fill:#e6e6e6;fill-opacity:1;stroke:#000000;stroke-width:0.56692785;stroke-miterlimit:4;stroke-opacity:1;stroke-dasharray:none"
       id="rect4416-1-84"
       width="42.519684"
       height="62.362202"
       x="317.48032"
       y="-107.71664"
       ry="5.314961"
       transform="scale(1,-1)" /><text
       xml:space="preserve"
       style="font-size:7.19999981px;font-style:normal;font-variant:normal;font-weight:normal;font-stretch:normal;text-align:center;line-height:125%;letter-spacing:0px;word-spacing:0px;text-anchor:middle;fill:#000000;fill-opacity:1;stroke:none;font-family:CMU Sans Serif Demi Condensed;-inkscape-font-specification:CMU Sans Serif Demi Condensed"
       x="338.50732"
       y="-99.2127"
       id="text5134-7-2"
       sodipodi:linespacing="125%"
       transform="scale(1,-1)"><tspan
         sodipodi:role="line"
         x="338.50732"
         y="-99.2127"
         style="font-size:7.19999981px;font-style:normal;font-variant:normal;font-weight:500;font-stretch:normal;text-align:center;text-anchor:middle;font-family:CMU Sans Serif;-inkscape-font-specification:CMU Sans Serif Medium"
         id="tspan5172-5">Full text</tspan><tspan
         sodipodi:role="line"
         x="338.50732"
         y="-90.2127"
         style="font-size:7.19999981px;font-style:normal;font-variant:normal;font-weight:500;font-stretch:normal;text-align:center;text-anchor:middle;font-family:CMU Sans Serif;-inkscape-font-specification:CMU Sans Serif Medium"
         id="tspan5254">analysis</tspan></text>
<path
       style="fill:#e6e6e6;fill-opacity:1;stroke:#000000;stroke-width:0.56692916;stroke-miterlimit:4;stroke-opacity:1;stroke-dasharray:none"
       d="m 39.685039,51.010139 c -2.94449,0 -5.325,-2.35551 -5.325,-5.3 l 0,-12.049999 c 0,-2.944492 2.38051,-5.325002 5.325,-5.325002 l 32.208071,0 c 2.94449,0 5.93134,2.448992 5.29999,5.325002 l 0,3.5 129.38997,0 0,-1.275 8.85,3.8 -8.85,3.775 0,-1.25 -129.38997,0 0,3.499999 c 0,2.94449 -2.3555,5.3 -5.29999,5.3 z"
       id="rect4416-2"
       inkscape:connector-curvature="0"
       sodipodi:nodetypes="sssssscccccccsss" /><text
       xml:space="preserve"
       style="font-size:7.19999981px;font-style:normal;font-variant:normal;font-weight:normal;font-stretch:normal;text-align:center;line-height:125%;letter-spacing:0px;word-spacing:0px;text-anchor:middle;fill:#000000;fill-opacity:1;stroke:none;font-family:CMU Sans Serif Demi Condensed;-inkscape-font-specification:CMU Sans Serif Demi Condensed"
       x="55.342484"
       y="-42.321766"
       id="text5134-6"
       sodipodi:linespacing="125%"
       transform="scale(1,-1)"><tspan
         sodipodi:role="line"
         id="tspan5136-0"
         x="55.342484"
         y="-42.321766"
         style="font-size:7.19999981px;font-style:normal;font-variant:normal;font-weight:500;font-stretch:normal;text-align:center;text-anchor:middle;font-family:CMU Sans Serif;-inkscape-font-specification:CMU Sans Serif Medium">Preliminary</tspan><tspan
         sodipodi:role="line"
         x="55.342484"
         y="-33.321766"
         id="tspan5138-5"
         style="font-size:7.19999981px;font-style:normal;font-variant:normal;font-weight:500;font-stretch:normal;text-align:center;text-anchor:middle;font-family:CMU Sans Serif;-inkscape-font-specification:CMU Sans Serif Medium">search</tspan></text>
<path
       style="fill:#ffffff;fill-opacity:1;stroke:#000000;stroke-width:0.56692916;stroke-linecap:butt;stroke-linejoin:miter;stroke-miterlimit:4;stroke-opacity:1;stroke-dasharray:none"
       d="m 95.59916,59.52549 23.24413,0 0,-25.51181 c -7.06013,-0.04 -11.19452,-5.621112 -16.44102,-5.669292 -2.36619,-0.0217 -4.67721,0.59533 -6.80311,1.70079 z"
       id="path5311-3-6"
       inkscape:connector-curvature="0"
       sodipodi:nodetypes="cccscc" /><path
       style="fill:#ffffff;fill-opacity:1;stroke:#000000;stroke-width:0.56692916;stroke-linecap:butt;stroke-linejoin:miter;stroke-miterlimit:4;stroke-opacity:1;stroke-dasharray:none"
       d="m 93.33145,56.69085 23.24413,0 0,-25.511812 c -7.06014,-0.04 -11.19453,-5.62112 -16.44102,-5.6693 -2.36619,-0.0217 -4.67721,0.59534 -6.80311,1.70079 z"
       id="path5311-5-83"
       inkscape:connector-curvature="0"
       sodipodi:nodetypes="cccscc" /><path
       style="fill:#ffffff;fill-opacity:1;stroke:#000000;stroke-width:0.56692916;stroke-linecap:butt;stroke-linejoin:miter;stroke-miterlimit:4;stroke-opacity:1;stroke-dasharray:none"
       d="m 91.06377,53.8562 23.24413,0 0,-25.511812 c -7.06014,-0.04 -11.19452,-5.62112 -16.44102,-5.66929 -2.36619,-0.0217 -4.67721,0.59533 -6.80311,1.70079 z"
       id="path5311-6"
       inkscape:connector-curvature="0"
       sodipodi:nodetypes="cccscc" /><text
       xml:space="preserve"
       style="font-size:7.19999981px;font-style:normal;font-variant:normal;font-weight:normal;font-stretch:normal;text-align:center;line-height:150%;letter-spacing:0px;word-spacing:0px;text-anchor:middle;fill:#000000;fill-opacity:1;stroke:none;font-family:CMU Sans Serif;-inkscape-font-specification:CMU Sans Serif"
       x="102.40237"
       y="-43.305302"
       id="text5140-1"
       sodipodi:linespacing="150%"
       transform="scale(1,-1)"><tspan
         sodipodi:role="line"
         id="tspan5142-15"
         x="102.40237"
         y="-43.305302">117</tspan><tspan
         sodipodi:role="line"
         x="102.40237"
         y="-32.505302"
         id="tspan5144-4">papers</tspan></text>
<path
       style="fill:#ffffff;fill-opacity:1;stroke:#000000;stroke-width:0.56692916;stroke-linecap:butt;stroke-linejoin:miter;stroke-miterlimit:4;stroke-opacity:1;stroke-dasharray:none"
       d="m 138.11884,59.527658 23.24414,0 0,-25.51181 c -7.06013,-0.04 -11.19452,-5.62111 -16.44103,-5.66929 -2.36619,-0.0217 -4.67721,0.59533 -6.80311,1.70079 z"
       id="path5311-3-6-1"
       inkscape:connector-curvature="0"
       sodipodi:nodetypes="cccscc" /><path
       style="fill:#ffffff;fill-opacity:1;stroke:#000000;stroke-width:0.56692916;stroke-linecap:butt;stroke-linejoin:miter;stroke-miterlimit:4;stroke-opacity:1;stroke-dasharray:none"
       d="m 135.85113,56.693018 23.24414,0 0,-25.51181 c -7.06014,-0.04 -11.19453,-5.62112 -16.44103,-5.6693 -2.36619,-0.0217 -4.67721,0.59534 -6.80311,1.70079 z"
       id="path5311-5-83-9"
       inkscape:connector-curvature="0"
       sodipodi:nodetypes="cccscc" /><path
       style="fill:#ffffff;fill-opacity:1;stroke:#000000;stroke-width:0.56692916;stroke-linecap:butt;stroke-linejoin:miter;stroke-miterlimit:4;stroke-opacity:1;stroke-dasharray:none"
       d="m 133.58345,53.858368 23.24414,0 0,-25.51181 c -7.06014,-0.04 -11.19453,-5.62112 -16.44103,-5.66929 -2.36619,-0.0217 -4.67721,0.59533 -6.80311,1.70079 z"
       id="path5311-6-9"
       inkscape:connector-curvature="0"
       sodipodi:nodetypes="cccscc" /><text
       xml:space="preserve"
       style="font-size:7.19999981px;font-style:normal;font-variant:normal;font-weight:normal;font-stretch:normal;text-align:center;line-height:150%;letter-spacing:0px;word-spacing:0px;text-anchor:middle;fill:#000000;fill-opacity:1;stroke:none;font-family:CMU Sans Serif;-inkscape-font-specification:CMU Sans Serif"
       x="144.92204"
       y="-43.307476"
       id="text5140-1-6"
       sodipodi:linespacing="150%"
       transform="scale(1,-1)"><tspan
         sodipodi:role="line"
         id="tspan5142-15-2"
         x="144.92204"
         y="-43.307476">32</tspan><tspan
         sodipodi:role="line"
         x="144.92204"
         y="-32.507477"
         id="tspan5144-4-9">papers</tspan></text>
<text
       xml:space="preserve"
       style="font-size:7.19999981px;font-style:normal;font-variant:normal;font-weight:normal;font-stretch:normal;text-align:center;line-height:125%;letter-spacing:0px;word-spacing:0px;text-anchor:middle;fill:#000000;fill-opacity:1;stroke:none;font-family:CMU Sans Serif Demi Condensed;-inkscape-font-specification:CMU Sans Serif Demi Condensed"
       x="236.4601"
       y="-42.519783"
       id="text5134-7-7-9"
       sodipodi:linespacing="125%"
       transform="scale(1,-1)"><tspan
         sodipodi:role="line"
         x="236.4601"
         y="-42.519783"
         id="tspan5138-2-3-9"
         style="font-size:7.19999981px;font-style:normal;font-variant:normal;font-weight:500;font-stretch:normal;text-align:center;text-anchor:middle;font-family:CMU Sans Serif;-inkscape-font-specification:CMU Sans Serif Medium">Full text</tspan><tspan
         sodipodi:role="line"
         x="236.4601"
         y="-33.519783"
         style="font-size:7.19999981px;font-style:normal;font-variant:normal;font-weight:500;font-stretch:normal;text-align:center;text-anchor:middle;font-family:CMU Sans Serif;-inkscape-font-specification:CMU Sans Serif Medium"
         id="tspan5172-3-5">filtering</tspan></text>
<text
       xml:space="preserve"
       style="font-size:7.19999981px;font-style:normal;font-variant:normal;font-weight:normal;font-stretch:normal;text-align:center;line-height:125%;letter-spacing:0px;word-spacing:0px;text-anchor:middle;fill:#000000;fill-opacity:1;stroke:none;font-family:CMU Sans Serif Demi Condensed;-inkscape-font-specification:CMU Sans Serif Demi Condensed"
       x="216.59052"
       y="-78.866112"
       id="text5134-7-4"
       sodipodi:linespacing="125%"
       transform="scale(1,-1)"><tspan
         sodipodi:role="line"
         x="216.59052"
         y="-78.866112"
         id="tspan5138-2-1"
         style="font-size:7.19999981px;font-style:normal;font-variant:normal;font-weight:500;font-stretch:normal;text-align:center;text-anchor:middle;font-family:CMU Sans Serif;-inkscape-font-specification:CMU Sans Serif Medium">References</tspan><tspan
         sodipodi:role="line"
         x="216.59052"
         y="-69.866112"
         style="font-size:7.19999981px;font-style:normal;font-variant:normal;font-weight:500;font-stretch:normal;text-align:center;text-anchor:middle;font-family:CMU Sans Serif;-inkscape-font-specification:CMU Sans Serif Medium"
         id="tspan5172-6">(full text)</tspan></text>
<path
       style="fill:#ffffff;fill-opacity:1;stroke:#000000;stroke-width:0.56692916;stroke-linecap:butt;stroke-linejoin:miter;stroke-miterlimit:4;stroke-opacity:1;stroke-dasharray:none"
       d="m 276.66137,62.362303 23.24414,0 0,-25.51181 c -7.06013,-0.04 -11.19453,-5.62112 -16.44103,-5.66929 -2.36619,-0.0217 -4.67721,0.59533 -6.80311,1.70078 z"
       id="path5311-3-0-7"
       inkscape:connector-curvature="0"
       sodipodi:nodetypes="cccscc" /><path
       style="fill:#ffffff;fill-opacity:1;stroke:#000000;stroke-width:0.56692916;stroke-linecap:butt;stroke-linejoin:miter;stroke-miterlimit:4;stroke-opacity:1;stroke-dasharray:none"
       d="m 274.39365,59.527653 23.24414,0 0,-25.51181 c -7.06014,-0.04 -11.19452,-5.62112 -16.44102,-5.66929 -2.3662,-0.0217 -4.67721,0.59533 -6.80312,1.70079 z"
       id="path5311-5-7-7"
       inkscape:connector-curvature="0"
       sodipodi:nodetypes="cccscc" /><path
       style="fill:#ffffff;fill-opacity:1;stroke:#000000;stroke-width:0.56692916;stroke-linecap:butt;stroke-linejoin:miter;stroke-miterlimit:4;stroke-opacity:1;stroke-dasharray:none"
       d="m 272.12598,56.693013 23.24414,0 0,-25.51181 c -7.06014,-0.04 -11.19453,-5.62112 -16.44103,-5.6693 -2.36619,-0.0217 -4.67721,0.59534 -6.80311,1.70079 z"
       id="path5311-9-8"
       inkscape:connector-curvature="0"
       sodipodi:nodetypes="cccscc" /><text
       xml:space="preserve"
       style="font-size:7.19999981px;font-style:normal;font-variant:normal;font-weight:normal;font-stretch:normal;text-align:center;line-height:150%;letter-spacing:0px;word-spacing:0px;text-anchor:middle;fill:#000000;fill-opacity:1;stroke:none;font-family:CMU Sans Serif;-inkscape-font-specification:CMU Sans Serif"
       x="283.46457"
       y="-46.142097"
       id="text5140-9-2"
       sodipodi:linespacing="150%"
       transform="scale(1,-1)"><tspan
         sodipodi:role="line"
         id="tspan5142-1-5"
         x="283.46457"
         y="-46.142097">3</tspan><tspan
         sodipodi:role="line"
         x="283.46457"
         y="-35.342098"
         id="tspan5144-9-7">papers</tspan></text>
<path
       style="fill:#ffffff;fill-opacity:1;stroke:#000000;stroke-width:0.56692916;stroke-linecap:butt;stroke-linejoin:miter;stroke-miterlimit:4;stroke-opacity:1;stroke-dasharray:none"
       d="m 248.88184,90.708756 23.24414,0 0,-25.51181 c -7.06014,-0.04 -11.19452,-5.62112 -16.44102,-5.66929 -2.3662,-0.0217 -4.67721,0.59533 -6.80312,1.70079 z"
       id="path5311-5-7-8"
       inkscape:connector-curvature="0"
       sodipodi:nodetypes="cccscc" /><path
       style="fill:#ffffff;fill-opacity:1;stroke:#000000;stroke-width:0.56692916;stroke-linecap:butt;stroke-linejoin:miter;stroke-miterlimit:4;stroke-opacity:1;stroke-dasharray:none"
       d="m 246.61417,87.874116 23.24414,0 0,-25.51181 c -7.06014,-0.04 -11.19453,-5.62112 -16.44103,-5.6693 -2.36619,-0.0217 -4.67721,0.59534 -6.80311,1.70079 z"
       id="path5311-9-88"
       inkscape:connector-curvature="0"
       sodipodi:nodetypes="cccscc" /><text
       xml:space="preserve"
       style="font-size:7.19999981px;font-style:normal;font-variant:normal;font-weight:normal;font-stretch:normal;text-align:center;line-height:150%;letter-spacing:0px;word-spacing:0px;text-anchor:middle;fill:#000000;fill-opacity:1;stroke:none;font-family:CMU Sans Serif;-inkscape-font-specification:CMU Sans Serif"
       x="257.95276"
       y="-77.323212"
       id="text5140-9-4"
       sodipodi:linespacing="150%"
       transform="scale(1,-1)"><tspan
         sodipodi:role="line"
         id="tspan5142-1-2"
         x="257.95276"
         y="-77.323212">2</tspan><tspan
         sodipodi:role="line"
         x="257.95276"
         y="-66.523209"
         id="tspan5144-9-73">papers</tspan></text>
<text
       xml:space="preserve"
       style="font-size:7.19999981px;font-style:normal;font-variant:normal;font-weight:normal;font-stretch:normal;text-align:center;line-height:100%;letter-spacing:0px;word-spacing:0px;text-anchor:middle;fill:#000000;fill-opacity:1;stroke:none;font-family:CMU Sans Serif Demi Condensed;-inkscape-font-specification:CMU Sans Serif Demi Condensed"
       x="134.7079"
       y="-79.370178"
       id="text5134-6-3"
       sodipodi:linespacing="100%"
       transform="scale(1,-1)"><tspan
         sodipodi:role="line"
         x="134.7079"
         y="-79.370178"
         id="tspan5138-5-5"
         style="font-size:7.19999981px;font-style:normal;font-variant:normal;font-weight:500;font-stretch:normal;text-align:center;line-height:100%;text-anchor:middle;font-family:CMU Sans Serif;-inkscape-font-specification:CMU Sans Serif Medium">Duplicates</tspan><tspan
         sodipodi:role="line"
         x="134.7079"
         y="-72.170181"
         style="font-size:7.19999981px;font-style:normal;font-variant:normal;font-weight:500;font-stretch:normal;text-align:center;line-height:100%;text-anchor:middle;font-family:CMU Sans Serif;-inkscape-font-specification:CMU Sans Serif Medium"
         id="tspan5141">removed</tspan></text>
<path
       style="fill:#ffffff;fill-opacity:1;stroke:#000000;stroke-width:0.56692916;stroke-linecap:butt;stroke-linejoin:miter;stroke-miterlimit:4;stroke-opacity:1;stroke-dasharray:none"
       d="m 329.95271,85.039472 23.24414,0 0,-25.51181 c -7.06013,-0.04 -11.19453,-5.62112 -16.44103,-5.66929 -2.36619,-0.0217 -4.67721,0.59533 -6.80311,1.70078 z"
       id="path5311-3-0-9"
       inkscape:connector-curvature="0"
       sodipodi:nodetypes="cccscc" /><path
       style="fill:#ffffff;fill-opacity:1;stroke:#000000;stroke-width:0.56692916;stroke-linecap:butt;stroke-linejoin:miter;stroke-miterlimit:4;stroke-opacity:1;stroke-dasharray:none"
       d="m 327.68499,82.204822 23.24414,0 0,-25.51181 c -7.06014,-0.04 -11.19452,-5.62112 -16.44102,-5.66929 -2.3662,-0.0217 -4.67721,0.59533 -6.80312,1.70079 z"
       id="path5311-5-7-4"
       inkscape:connector-curvature="0"
       sodipodi:nodetypes="cccscc" /><path
       style="fill:#ffffff;fill-opacity:1;stroke:#000000;stroke-width:0.56692916;stroke-linecap:butt;stroke-linejoin:miter;stroke-miterlimit:4;stroke-opacity:1;stroke-dasharray:none"
       d="m 325.41732,79.370182 23.24414,0 0,-25.51181 c -7.06014,-0.04 -11.19453,-5.621123 -16.44103,-5.669303 -2.36619,-0.0217 -4.67721,0.59534 -6.80311,1.700793 z"
       id="path5311-9-9"
       inkscape:connector-curvature="0"
       sodipodi:nodetypes="cccscc" /><text
       xml:space="preserve"
       style="font-size:7.19999981px;font-style:normal;font-variant:normal;font-weight:normal;font-stretch:normal;text-align:center;line-height:150%;letter-spacing:0px;word-spacing:0px;text-anchor:middle;fill:#000000;fill-opacity:1;stroke:none;font-family:CMU Sans Serif;-inkscape-font-specification:CMU Sans Serif"
       x="336.75592"
       y="-68.81926"
       id="text5140-9-7"
       sodipodi:linespacing="150%"
       transform="scale(1,-1)"><tspan
         sodipodi:role="line"
         id="tspan5142-1-1"
         x="336.75592"
         y="-68.81926">52</tspan><tspan
         sodipodi:role="line"
         x="336.75592"
         y="-58.01926"
         id="tspan5144-9-6">papers</tspan></text>
</g></svg>