<?xml version="1.0" encoding="UTF-8" standalone="no"?>
<!-- Created with Inkscape (http://www.inkscape.org/) -->

<svg
   xmlns:dc="http://purl.org/dc/elements/1.1/"
   xmlns:cc="http://creativecommons.org/ns#"
   xmlns:rdf="http://www.w3.org/1999/02/22-rdf-syntax-ns#"
   xmlns:svg="http://www.w3.org/2000/svg"
   xmlns="http://www.w3.org/2000/svg"
   xmlns:sodipodi="http://sodipodi.sourceforge.net/DTD/sodipodi-0.dtd"
   xmlns:inkscape="http://www.inkscape.org/namespaces/inkscape"
   id="svg3862"
   version="1.1"
   inkscape:version="0.48.4 r9939"
   width="460.62991"
   height="70.866142"
   xml:space="preserve"
   sodipodi:docname="research_process.svg"><metadata
     id="metadata3868"><rdf:RDF><cc:Work
         rdf:about=""><dc:format>image/svg+xml</dc:format><dc:type
           rdf:resource="http://purl.org/dc/dcmitype/StillImage" /></cc:Work></rdf:RDF></metadata><defs
     id="defs3866"><clipPath
       clipPathUnits="userSpaceOnUse"
       id="clipPath3880"><path
         d="m 350,33.935 0,-2.48 -83.828,0 0,-7.371 83.828,0 0,-2.481 14.121,6.16 L 350,33.935 z"
         id="path3882"
         inkscape:connector-curvature="0" /></clipPath><clipPath
       clipPathUnits="userSpaceOnUse"
       id="clipPath3888"><path
         d="M 0,0 630,0 630,57 0,57 0,0 z"
         id="path3890"
         inkscape:connector-curvature="0" /></clipPath><clipPath
       clipPathUnits="userSpaceOnUse"
       id="clipPath3892"><path
         d="M 0,0 630,0 630,57 0,57 0,0 z"
         id="path3894"
         inkscape:connector-curvature="0" /></clipPath><clipPath
       clipPathUnits="userSpaceOnUse"
       id="clipPath3922"><path
         d="m 530.898,33.935 0,-2.48 -83.839,0 0,-7.371 83.839,0 0,-2.481 14.114,6.16 -14.114,6.172 z"
         id="path3924"
         inkscape:connector-curvature="0" /></clipPath><clipPath
       clipPathUnits="userSpaceOnUse"
       id="clipPath3930"><path
         d="M 0,0 630,0 630,57 0,57 0,0 z"
         id="path3932"
         inkscape:connector-curvature="0" /></clipPath><clipPath
       clipPathUnits="userSpaceOnUse"
       id="clipPath3934"><path
         d="M 0,0 630,0 630,57 0,57 0,0 z"
         id="path3936"
         inkscape:connector-curvature="0" /></clipPath><clipPath
       clipPathUnits="userSpaceOnUse"
       id="clipPath3964"><path
         d="m 168.461,33.935 0,-2.48 -83.832,0 0,-7.371 83.832,0 0,-2.481 14.117,6.16 -14.117,6.172 z"
         id="path3966"
         inkscape:connector-curvature="0" /></clipPath><clipPath
       clipPathUnits="userSpaceOnUse"
       id="clipPath3972"><path
         d="M 0,0 630,0 630,57 0,57 0,0 z"
         id="path3974"
         inkscape:connector-curvature="0" /></clipPath><clipPath
       clipPathUnits="userSpaceOnUse"
       id="clipPath3976"><path
         d="M 0,0 630,0 630,57 0,57 0,0 z"
         id="path3978"
         inkscape:connector-curvature="0" /></clipPath><clipPath
       clipPathUnits="userSpaceOnUse"
       id="clipPath4006"><path
         d="m 1.602,44.306 83.676,0 0,-33.082 -83.676,0 0,33.082 z"
         id="path4008"
         inkscape:connector-curvature="0" /></clipPath><clipPath
       clipPathUnits="userSpaceOnUse"
       id="clipPath4014"><path
         d="M 0,0 630,0 630,57 0,57 0,0 z"
         id="path4016"
         inkscape:connector-curvature="0" /></clipPath><clipPath
       clipPathUnits="userSpaceOnUse"
       id="clipPath4018"><path
         d="M 0,0 630,0 630,57 0,57 0,0 z"
         id="path4020"
         inkscape:connector-curvature="0" /></clipPath><clipPath
       clipPathUnits="userSpaceOnUse"
       id="clipPath4046"><path
         d="M 0,0 630,0 630,57 0,57 0,0 z"
         id="path4048"
         inkscape:connector-curvature="0" /></clipPath><clipPath
       clipPathUnits="userSpaceOnUse"
       id="clipPath4066"><path
         d="M 0,0 630,0 630,57 0,57 0,0 z"
         id="path4068"
         inkscape:connector-curvature="0" /></clipPath><clipPath
       clipPathUnits="userSpaceOnUse"
       id="clipPath4088"><path
         d="m 182.57,44.306 83.676,0 0,-33.082 -83.676,0 0,33.082 z"
         id="path4090"
         inkscape:connector-curvature="0" /></clipPath><clipPath
       clipPathUnits="userSpaceOnUse"
       id="clipPath4096"><path
         d="M 0,0 630,0 630,57 0,57 0,0 z"
         id="path4098"
         inkscape:connector-curvature="0" /></clipPath><clipPath
       clipPathUnits="userSpaceOnUse"
       id="clipPath4100"><path
         d="M 0,0 630,0 630,57 0,57 0,0 z"
         id="path4102"
         inkscape:connector-curvature="0" /></clipPath><clipPath
       clipPathUnits="userSpaceOnUse"
       id="clipPath4130"><path
         d="M 0,0 630,0 630,57 0,57 0,0 z"
         id="path4132"
         inkscape:connector-curvature="0" /></clipPath><clipPath
       clipPathUnits="userSpaceOnUse"
       id="clipPath4154"><path
         d="m 363.551,44.306 83.676,0 0,-33.082 -83.676,0 0,33.082 z"
         id="path4156"
         inkscape:connector-curvature="0" /></clipPath><clipPath
       clipPathUnits="userSpaceOnUse"
       id="clipPath4162"><path
         d="M 0,0 630,0 630,57 0,57 0,0 z"
         id="path4164"
         inkscape:connector-curvature="0" /></clipPath><clipPath
       clipPathUnits="userSpaceOnUse"
       id="clipPath4166"><path
         d="M 0,0 630,0 630,57 0,57 0,0 z"
         id="path4168"
         inkscape:connector-curvature="0" /></clipPath><clipPath
       clipPathUnits="userSpaceOnUse"
       id="clipPath4196"><path
         d="M 0,0 630,0 630,57 0,57 0,0 z"
         id="path4198"
         inkscape:connector-curvature="0" /></clipPath><clipPath
       clipPathUnits="userSpaceOnUse"
       id="clipPath4220"><path
         d="m 544.52,43.658 83.676,0 0,-31.781 -83.676,0 0,31.781 z"
         id="path4222"
         inkscape:connector-curvature="0" /></clipPath><clipPath
       clipPathUnits="userSpaceOnUse"
       id="clipPath4228"><path
         d="M 0,0 630,0 630,57 0,57 0,0 z"
         id="path4230"
         inkscape:connector-curvature="0" /></clipPath><clipPath
       clipPathUnits="userSpaceOnUse"
       id="clipPath4232"><path
         d="M 0,0 630,0 630,57 0,57 0,0 z"
         id="path4234"
         inkscape:connector-curvature="0" /></clipPath><clipPath
       clipPathUnits="userSpaceOnUse"
       id="clipPath4262"><path
         d="M 0,0 630,0 630,57 0,57 0,0 z"
         id="path4264"
         inkscape:connector-curvature="0" /></clipPath><clipPath
       clipPathUnits="userSpaceOnUse"
       id="clipPath4292"><path
         d="M 0,0 630,0 630,57 0,57 0,0 z"
         id="path4294"
         inkscape:connector-curvature="0" /></clipPath><clipPath
       clipPathUnits="userSpaceOnUse"
       id="clipPath4310"><path
         d="M 0,0 630,0 630,57 0,57 0,0 z"
         id="path4312"
         inkscape:connector-curvature="0" /></clipPath><clipPath
       clipPathUnits="userSpaceOnUse"
       id="clipPath4338"><path
         d="M 0,0 630,0 630,57 0,57 0,0 z"
         id="path4340"
         inkscape:connector-curvature="0" /></clipPath><clipPath
       clipPathUnits="userSpaceOnUse"
       id="clipPath4356"><path
         d="M 0,0 630,0 630,57 0,57 0,0 z"
         id="path4358"
         inkscape:connector-curvature="0" /></clipPath><clipPath
       clipPathUnits="userSpaceOnUse"
       id="clipPath4384"><path
         d="M 0,0 630,0 630,57 0,57 0,0 z"
         id="path4386"
         inkscape:connector-curvature="0" /></clipPath><clipPath
       clipPathUnits="userSpaceOnUse"
       id="clipPath4402"><path
         d="M 0,0 630,0 630,57 0,57 0,0 z"
         id="path4404"
         inkscape:connector-curvature="0" /></clipPath></defs><sodipodi:namedview
     pagecolor="#ffffff"
     bordercolor="#666666"
     borderopacity="1"
     objecttolerance="10"
     gridtolerance="10"
     guidetolerance="10"
     inkscape:pageopacity="0"
     inkscape:pageshadow="2"
     inkscape:window-width="1918"
     inkscape:window-height="1154"
     id="namedview3864"
     showgrid="false"
     inkscape:document-units="cm"
     units="cm"
     inkscape:zoom="1.1363905"
     inkscape:cx="254.23337"
     inkscape:cy="11.556734"
     inkscape:window-x="0"
     inkscape:window-y="0"
     inkscape:window-maximized="1"
     inkscape:current-layer="g3870"
     inkscape:snap-bbox="false"
     inkscape:snap-global="true"
     inkscape:snap-bbox-edge-midpoints="false"
     inkscape:object-nodes="true"><inkscape:grid
       type="xygrid"
       id="grid4418"
       empspacing="5"
       visible="true"
       enabled="true"
       snapvisiblegridlinesonly="true"
       units="cm"
       spacingx="0.02cm"
       spacingy="0.02cm" /></sodipodi:namedview><g
     id="g3870"
     inkscape:groupmode="layer"
     inkscape:label="research_process"
     transform="matrix(1.25,0,0,-1.25,0,70.866259)"><path
       style="fill:#e6e6e6;fill-opacity:1;stroke:#000000;stroke-width:0.70866144;stroke-miterlimit:4;stroke-opacity:1;stroke-dasharray:none"
       d="M 10.1875 14.1875 C 6.5068899 14.1875 3.53125 17.13189 3.53125 20.8125 L 3.53125 35.875 C 3.53125 39.55561 6.5068899 42.53125 10.1875 42.53125 L 60.6875 42.53125 C 64.36811 42.53125 67.3125 39.55561 67.3125 35.875 L 67.3125 31.5 L 130.28125 31.5 L 130.28125 33.09375 L 141.34375 28.34375 L 130.28125 23.625 L 130.28125 25.1875 L 67.3125 25.1875 L 67.3125 20.8125 C 67.3125 17.13189 64.36811 14.1875 60.6875 14.1875 L 10.1875 14.1875 z "
       transform="matrix(0.8,0,0,-0.8,0,56.693007)"
       id="rect4416" /><path
       style="fill:#e6e6e6;fill-opacity:1;stroke:#000000;stroke-width:0.70866144;stroke-miterlimit:4;stroke-opacity:1;stroke-dasharray:none"
       d="M 148.375 14.1875 C 144.69439 14.1875 141.71875 17.13189 141.71875 20.8125 L 141.71875 35.875 C 141.71875 39.55561 144.69439 42.53125 148.375 42.53125 L 188.25 42.53125 C 191.93061 42.53125 194.875 39.55561 194.875 35.875 L 194.875 31.5 L 257.84375 31.5 L 257.84375 33.09375 L 268.90625 28.34375 L 257.84375 23.625 L 257.84375 25.1875 L 194.875 25.1875 L 194.875 20.8125 C 194.875 17.13189 191.93061 14.1875 188.25 14.1875 L 148.375 14.1875 z "
       transform="matrix(0.8,0,0,-0.8,0,56.693007)"
       id="rect4416-1" /><text
       xml:space="preserve"
       style="font-size:7.19999980999999867px;font-style:normal;font-variant:normal;font-weight:normal;font-stretch:normal;text-align:center;line-height:125%;letter-spacing:0px;word-spacing:0px;text-anchor:middle;fill:#000000;fill-opacity:1;stroke:none;font-family:CMU Sans Serif Demi Condensed;-inkscape-font-specification:CMU Sans Serif Demi Condensed;stroke-width:0.56692914;stroke-miterlimit:4;stroke-dasharray:none"
       x="28.341339"
       y="-36.654644"
       id="text5134"
       sodipodi:linespacing="125%"
       transform="scale(1,-1)"><tspan
         sodipodi:role="line"
         id="tspan5136"
         x="28.341339"
         y="-36.654644"
         style="font-size:7.19999980999999867px;font-style:normal;font-variant:normal;font-weight:500;font-stretch:normal;text-align:center;text-anchor:middle;font-family:CMU Sans Serif;-inkscape-font-specification:CMU Sans Serif Medium;stroke-width:0.56692914;stroke-miterlimit:4;stroke-dasharray:none">Database</tspan><tspan
         sodipodi:role="line"
         x="28.341339"
         y="-27.654644"
         id="tspan5138"
         style="font-size:7.19999980999999867px;font-style:normal;font-variant:normal;font-weight:500;font-stretch:normal;text-align:center;text-anchor:middle;font-family:CMU Sans Serif;-inkscape-font-specification:CMU Sans Serif Medium;stroke-width:0.56692914;stroke-miterlimit:4;stroke-dasharray:none">keyword search</tspan></text>
<path
       style="fill:#ffffff;fill-opacity:1;stroke:#000000;stroke-width:0.56692914;stroke-linecap:butt;stroke-linejoin:miter;stroke-miterlimit:4;stroke-opacity:1;stroke-dasharray:none"
       d="m 72.566889,53.858361 23.244135,10e-7 0,-25.511809 c -7.06013,-0.04001 -11.194522,-5.621117 -16.441025,-5.669293 -2.366191,-0.02173 -4.677209,0.595334 -6.80311,1.700788 z"
       id="path5311-3"
       inkscape:connector-curvature="0"
       sodipodi:nodetypes="cccscc" /><path
       style="fill:#ffffff;fill-opacity:1;stroke:#000000;stroke-width:0.56692914;stroke-linecap:butt;stroke-linejoin:miter;stroke-miterlimit:4;stroke-opacity:1;stroke-dasharray:none"
       d="m 70.299173,51.023716 23.244139,10e-7 0,-25.51181 c -7.06014,-0.04001 -11.194524,-5.621117 -16.441029,-5.669293 -2.366191,-0.02173 -4.677209,0.595334 -6.80311,1.700788 z"
       id="path5311-5"
       inkscape:connector-curvature="0"
       sodipodi:nodetypes="cccscc" /><path
       style="fill:#ffffff;fill-opacity:1;stroke:#000000;stroke-width:0.56692914;stroke-linecap:butt;stroke-linejoin:miter;stroke-miterlimit:4;stroke-opacity:1;stroke-dasharray:none"
       d="m 68.031496,48.18907 23.244138,10e-7 0,-25.51181 c -7.060139,-0.04001 -11.194526,-5.621117 -16.441028,-5.669293 -2.366191,-0.02173 -4.677209,0.595334 -6.80311,1.700788 z"
       id="path5311"
       inkscape:connector-curvature="0"
       sodipodi:nodetypes="cccscc" /><text
       xml:space="preserve"
       style="font-size:7.19999980999999867px;font-style:normal;font-variant:normal;font-weight:normal;font-stretch:normal;text-align:center;line-height:150%;letter-spacing:0px;word-spacing:0px;text-anchor:middle;fill:#000000;fill-opacity:1;stroke:none;font-family:CMU Sans Serif;-inkscape-font-specification:CMU Sans Serif;stroke-width:0.56692914;stroke-miterlimit:4;stroke-dasharray:none"
       x="79.370079"
       y="-37.63818"
       id="text5140"
       sodipodi:linespacing="150%"
       transform="scale(1,-1)"><tspan
         sodipodi:role="line"
         id="tspan5142"
         x="79.370079"
         y="-37.63818">1874</tspan><tspan
         sodipodi:role="line"
         x="79.370079"
         y="-26.838181"
         id="tspan5144">papers</tspan></text>
<text
       xml:space="preserve"
       style="font-size:7.19999980999999867px;font-style:normal;font-variant:normal;font-weight:normal;font-stretch:normal;text-align:center;line-height:125%;letter-spacing:0px;word-spacing:0px;text-anchor:middle;fill:#000000;fill-opacity:1;stroke:none;font-family:CMU Sans Serif Demi Condensed;-inkscape-font-specification:CMU Sans Serif Demi Condensed;stroke-width:0.56692914;stroke-miterlimit:4;stroke-dasharray:none"
       x="134.65404"
       y="-36.658241"
       id="text5134-7"
       sodipodi:linespacing="125%"
       transform="scale(1,-1)"><tspan
         sodipodi:role="line"
         x="134.65404"
         y="-36.658241"
         id="tspan5138-2"
         style="font-size:7.19999980999999867px;font-style:normal;font-variant:normal;font-weight:500;font-stretch:normal;text-align:center;text-anchor:middle;font-family:CMU Sans Serif;-inkscape-font-specification:CMU Sans Serif Medium;stroke-width:0.56692914;stroke-miterlimit:4;stroke-dasharray:none">Abstract</tspan><tspan
         sodipodi:role="line"
         x="134.65404"
         y="-27.658241"
         style="font-size:7.19999980999999867px;font-style:normal;font-variant:normal;font-weight:500;font-stretch:normal;text-align:center;text-anchor:middle;font-family:CMU Sans Serif;-inkscape-font-specification:CMU Sans Serif Medium;stroke-width:0.56692914;stroke-miterlimit:4;stroke-dasharray:none"
         id="tspan5172">filtering</tspan></text>
<path
       style="fill:#ffffff;fill-opacity:1;stroke:#000000;stroke-width:0.56692914;stroke-linecap:butt;stroke-linejoin:miter;stroke-miterlimit:4;stroke-opacity:1;stroke-dasharray:none"
       d="m 174.61413,53.858361 23.24414,10e-7 0,-25.511809 c -7.06013,-0.04001 -11.19453,-5.621117 -16.44103,-5.669293 -2.36619,-0.02173 -4.67721,0.595334 -6.80311,1.700788 z"
       id="path5311-3-4"
       inkscape:connector-curvature="0"
       sodipodi:nodetypes="cccscc" /><path
       style="fill:#ffffff;fill-opacity:1;stroke:#000000;stroke-width:0.56692914;stroke-linecap:butt;stroke-linejoin:miter;stroke-miterlimit:4;stroke-opacity:1;stroke-dasharray:none"
       d="m 172.34641,51.023716 23.24414,10e-7 0,-25.51181 c -7.06014,-0.04001 -11.19452,-5.621117 -16.44103,-5.669293 -2.36619,-0.02173 -4.6772,0.595334 -6.80311,1.700788 z"
       id="path5311-5-8"
       inkscape:connector-curvature="0"
       sodipodi:nodetypes="cccscc" /><path
       style="fill:#ffffff;fill-opacity:1;stroke:#000000;stroke-width:0.56692914;stroke-linecap:butt;stroke-linejoin:miter;stroke-miterlimit:4;stroke-opacity:1;stroke-dasharray:none"
       d="m 170.07874,48.18907 23.24414,10e-7 0,-25.51181 c -7.06014,-0.04001 -11.19453,-5.621117 -16.44103,-5.669293 -2.36619,-0.02173 -4.67721,0.595334 -6.80311,1.700788 z"
       id="path5311-8"
       inkscape:connector-curvature="0"
       sodipodi:nodetypes="cccscc" /><text
       xml:space="preserve"
       style="font-size:7.19999980999999867px;font-style:normal;font-variant:normal;font-weight:normal;font-stretch:normal;text-align:center;line-height:150%;letter-spacing:0px;word-spacing:0px;text-anchor:middle;fill:#000000;fill-opacity:1;stroke:none;font-family:CMU Sans Serif;-inkscape-font-specification:CMU Sans Serif;stroke-width:0.56692914;stroke-miterlimit:4;stroke-dasharray:none"
       x="181.41733"
       y="-37.63818"
       id="text5140-2"
       sodipodi:linespacing="150%"
       transform="scale(1,-1)"><tspan
         sodipodi:role="line"
         id="tspan5142-6"
         x="181.41733"
         y="-37.63818">170</tspan><tspan
         sodipodi:role="line"
         x="181.41733"
         y="-26.838181"
         id="tspan5144-1">papers</tspan></text>
<path
       style="fill:#e6e6e6;fill-opacity:1;stroke:#000000;stroke-width:0.70866144;stroke-miterlimit:4;stroke-opacity:1;stroke-dasharray:none"
       d="M 275.9375 14.1875 C 272.25689 14.1875 269.28125 17.13189 269.28125 20.8125 L 269.28125 35.875 C 269.28125 39.55561 272.25689 42.53125 275.9375 42.53125 L 315.8125 42.53125 C 319.49311 42.53125 322.4375 39.55561 322.4375 35.875 L 322.4375 31.5 L 385.40625 31.5 L 385.40625 33.09375 L 396.46875 28.34375 L 385.40625 23.625 L 385.40625 25.1875 L 322.4375 25.1875 L 322.4375 20.8125 C 322.4375 17.13189 319.49311 14.1875 315.8125 14.1875 L 275.9375 14.1875 z "
       transform="matrix(0.8,0,0,-0.8,0,56.693007)"
       id="rect4416-1-1" /><text
       xml:space="preserve"
       style="font-size:7.19999980999999867px;font-style:normal;font-variant:normal;font-weight:normal;font-stretch:normal;text-align:center;line-height:125%;letter-spacing:0px;word-spacing:0px;text-anchor:middle;fill:#000000;fill-opacity:1;stroke:none;font-family:CMU Sans Serif Demi Condensed;-inkscape-font-specification:CMU Sans Serif Demi Condensed;stroke-width:0.56692914;stroke-miterlimit:4;stroke-dasharray:none"
       x="236.4601"
       y="-36.658241"
       id="text5134-7-7"
       sodipodi:linespacing="125%"
       transform="scale(1,-1)"><tspan
         sodipodi:role="line"
         x="236.4601"
         y="-36.658241"
         id="tspan5138-2-3"
         style="font-size:7.19999980999999867px;font-style:normal;font-variant:normal;font-weight:500;font-stretch:normal;text-align:center;text-anchor:middle;font-family:CMU Sans Serif;-inkscape-font-specification:CMU Sans Serif Medium;stroke-width:0.56692914;stroke-miterlimit:4;stroke-dasharray:none">Full text</tspan><tspan
         sodipodi:role="line"
         x="236.4601"
         y="-27.658241"
         style="font-size:7.19999980999999867px;font-style:normal;font-variant:normal;font-weight:500;font-stretch:normal;text-align:center;text-anchor:middle;font-family:CMU Sans Serif;-inkscape-font-specification:CMU Sans Serif Medium;stroke-width:0.56692914;stroke-miterlimit:4;stroke-dasharray:none"
         id="tspan5172-3">filtering</tspan></text>
<rect
       style="fill:#e6e6e6;fill-opacity:1;stroke:#000000;stroke-width:0.56692914;stroke-miterlimit:4;stroke-opacity:1;stroke-dasharray:none"
       id="rect4416-1-84"
       width="42.519684"
       height="22.677164"
       x="317.48032"
       y="-45.354424"
       ry="5.3149605"
       transform="scale(1,-1)" /><text
       xml:space="preserve"
       style="font-size:7.19999980999999867px;font-style:normal;font-variant:normal;font-weight:normal;font-stretch:normal;text-align:center;line-height:125%;letter-spacing:0px;word-spacing:0px;text-anchor:middle;fill:#000000;fill-opacity:1;stroke:none;font-family:CMU Sans Serif Demi Condensed;-inkscape-font-specification:CMU Sans Serif Demi Condensed;stroke-width:0.56692914;stroke-miterlimit:4;stroke-dasharray:none"
       x="338.50732"
       y="-36.654644"
       id="text5134-7-2"
       sodipodi:linespacing="125%"
       transform="scale(1,-1)"><tspan
         sodipodi:role="line"
         x="338.50732"
         y="-36.654644"
         style="font-size:7.19999980999999867px;font-style:normal;font-variant:normal;font-weight:500;font-stretch:normal;text-align:center;text-anchor:middle;font-family:CMU Sans Serif;-inkscape-font-specification:CMU Sans Serif Medium;stroke-width:0.56692914;stroke-miterlimit:4;stroke-dasharray:none"
         id="tspan5172-5">Full text</tspan><tspan
         sodipodi:role="line"
         x="338.50732"
         y="-27.654644"
         style="font-size:7.19999980999999867px;font-style:normal;font-variant:normal;font-weight:500;font-stretch:normal;text-align:center;text-anchor:middle;font-family:CMU Sans Serif;-inkscape-font-specification:CMU Sans Serif Medium;stroke-width:0.56692914;stroke-miterlimit:4;stroke-dasharray:none"
         id="tspan5254">analysis</tspan></text>
<path
       style="fill:#ffffff;fill-opacity:1;stroke:#000000;stroke-width:0.56692914;stroke-linecap:butt;stroke-linejoin:miter;stroke-miterlimit:4;stroke-opacity:1;stroke-dasharray:none"
       d="m 276.66137,53.858361 23.24414,10e-7 0,-25.511809 c -7.06013,-0.04001 -11.19453,-5.621117 -16.44103,-5.669293 -2.36619,-0.02173 -4.67721,0.595334 -6.80311,1.700788 z"
       id="path5311-3-0"
       inkscape:connector-curvature="0"
       sodipodi:nodetypes="cccscc" /><path
       style="fill:#ffffff;fill-opacity:1;stroke:#000000;stroke-width:0.56692914;stroke-linecap:butt;stroke-linejoin:miter;stroke-miterlimit:4;stroke-opacity:1;stroke-dasharray:none"
       d="m 274.39365,51.023716 23.24414,10e-7 0,-25.51181 c -7.06014,-0.04001 -11.19452,-5.621117 -16.44102,-5.669293 -2.3662,-0.02173 -4.67721,0.595334 -6.80312,1.700788 z"
       id="path5311-5-7"
       inkscape:connector-curvature="0"
       sodipodi:nodetypes="cccscc" /><path
       style="fill:#ffffff;fill-opacity:1;stroke:#000000;stroke-width:0.56692914;stroke-linecap:butt;stroke-linejoin:miter;stroke-miterlimit:4;stroke-opacity:1;stroke-dasharray:none"
       d="m 272.12598,48.18907 23.24414,10e-7 0,-25.51181 c -7.06014,-0.04001 -11.19453,-5.621117 -16.44103,-5.669293 -2.36619,-0.02173 -4.67721,0.595334 -6.80311,1.700788 z"
       id="path5311-9"
       inkscape:connector-curvature="0"
       sodipodi:nodetypes="cccscc" /><text
       xml:space="preserve"
       style="font-size:7.19999980999999867px;font-style:normal;font-variant:normal;font-weight:normal;font-stretch:normal;text-align:center;line-height:150%;letter-spacing:0px;word-spacing:0px;text-anchor:middle;fill:#000000;fill-opacity:1;stroke:none;font-family:CMU Sans Serif;-inkscape-font-specification:CMU Sans Serif;stroke-width:0.56692914;stroke-miterlimit:4;stroke-dasharray:none"
       x="283.46457"
       y="-37.63818"
       id="text5140-9"
       sodipodi:linespacing="150%"
       transform="scale(1,-1)"><tspan
         sodipodi:role="line"
         id="tspan5142-1"
         x="283.46457"
         y="-37.63818">52</tspan><tspan
         sodipodi:role="line"
         x="283.46457"
         y="-26.838181"
         id="tspan5144-9">papers</tspan></text>
</g></svg>