<?xml version="1.0" encoding="UTF-8" standalone="no"?>
<!-- Created with Inkscape (http://www.inkscape.org/) -->

<svg
   xmlns:dc="http://purl.org/dc/elements/1.1/"
   xmlns:cc="http://creativecommons.org/ns#"
   xmlns:rdf="http://www.w3.org/1999/02/22-rdf-syntax-ns#"
   xmlns:svg="http://www.w3.org/2000/svg"
   xmlns="http://www.w3.org/2000/svg"
   xmlns:sodipodi="http://sodipodi.sourceforge.net/DTD/sodipodi-0.dtd"
   xmlns:inkscape="http://www.inkscape.org/namespaces/inkscape"
   id="svg3862"
   version="1.1"
   inkscape:version="0.48.4 r9939"
   width="460.62991"
   height="70.866142"
   xml:space="preserve"
   sodipodi:docname="research_process.svg"><metadata
     id="metadata3868"><rdf:RDF><cc:Work
         rdf:about=""><dc:format>image/svg+xml</dc:format><dc:type
           rdf:resource="http://purl.org/dc/dcmitype/StillImage" /></cc:Work></rdf:RDF></metadata><defs
     id="defs3866"><clipPath
       clipPathUnits="userSpaceOnUse"
       id="clipPath3880"><path
         d="m 350,33.935 0,-2.48 -83.828,0 0,-7.371 83.828,0 0,-2.481 14.121,6.16 L 350,33.935 z"
         id="path3882"
         inkscape:connector-curvature="0" /></clipPath><clipPath
       clipPathUnits="userSpaceOnUse"
       id="clipPath3888"><path
         d="M 0,0 630,0 630,57 0,57 0,0 z"
         id="path3890"
         inkscape:connector-curvature="0" /></clipPath><clipPath
       clipPathUnits="userSpaceOnUse"
       id="clipPath3892"><path
         d="M 0,0 630,0 630,57 0,57 0,0 z"
         id="path3894"
         inkscape:connector-curvature="0" /></clipPath><clipPath
       clipPathUnits="userSpaceOnUse"
       id="clipPath3922"><path
         d="m 530.898,33.935 0,-2.48 -83.839,0 0,-7.371 83.839,0 0,-2.481 14.114,6.16 -14.114,6.172 z"
         id="path3924"
         inkscape:connector-curvature="0" /></clipPath><clipPath
       clipPathUnits="userSpaceOnUse"
       id="clipPath3930"><path
         d="M 0,0 630,0 630,57 0,57 0,0 z"
         id="path3932"
         inkscape:connector-curvature="0" /></clipPath><clipPath
       clipPathUnits="userSpaceOnUse"
       id="clipPath3934"><path
         d="M 0,0 630,0 630,57 0,57 0,0 z"
         id="path3936"
         inkscape:connector-curvature="0" /></clipPath><clipPath
       clipPathUnits="userSpaceOnUse"
       id="clipPath3964"><path
         d="m 168.461,33.935 0,-2.48 -83.832,0 0,-7.371 83.832,0 0,-2.481 14.117,6.16 -14.117,6.172 z"
         id="path3966"
         inkscape:connector-curvature="0" /></clipPath><clipPath
       clipPathUnits="userSpaceOnUse"
       id="clipPath3972"><path
         d="M 0,0 630,0 630,57 0,57 0,0 z"
         id="path3974"
         inkscape:connector-curvature="0" /></clipPath><clipPath
       clipPathUnits="userSpaceOnUse"
       id="clipPath3976"><path
         d="M 0,0 630,0 630,57 0,57 0,0 z"
         id="path3978"
         inkscape:connector-curvature="0" /></clipPath><clipPath
       clipPathUnits="userSpaceOnUse"
       id="clipPath4006"><path
         d="m 1.602,44.306 83.676,0 0,-33.082 -83.676,0 0,33.082 z"
         id="path4008"
         inkscape:connector-curvature="0" /></clipPath><clipPath
       clipPathUnits="userSpaceOnUse"
       id="clipPath4014"><path
         d="M 0,0 630,0 630,57 0,57 0,0 z"
         id="path4016"
         inkscape:connector-curvature="0" /></clipPath><clipPath
       clipPathUnits="userSpaceOnUse"
       id="clipPath4018"><path
         d="M 0,0 630,0 630,57 0,57 0,0 z"
         id="path4020"
         inkscape:connector-curvature="0" /></clipPath><clipPath
       clipPathUnits="userSpaceOnUse"
       id="clipPath4046"><path
         d="M 0,0 630,0 630,57 0,57 0,0 z"
         id="path4048"
         inkscape:connector-curvature="0" /></clipPath><clipPath
       clipPathUnits="userSpaceOnUse"
       id="clipPath4066"><path
         d="M 0,0 630,0 630,57 0,57 0,0 z"
         id="path4068"
         inkscape:connector-curvature="0" /></clipPath><clipPath
       clipPathUnits="userSpaceOnUse"
       id="clipPath4088"><path
         d="m 182.57,44.306 83.676,0 0,-33.082 -83.676,0 0,33.082 z"
         id="path4090"
         inkscape:connector-curvature="0" /></clipPath><clipPath
       clipPathUnits="userSpaceOnUse"
       id="clipPath4096"><path
         d="M 0,0 630,0 630,57 0,57 0,0 z"
         id="path4098"
         inkscape:connector-curvature="0" /></clipPath><clipPath
       clipPathUnits="userSpaceOnUse"
       id="clipPath4100"><path
         d="M 0,0 630,0 630,57 0,57 0,0 z"
         id="path4102"
         inkscape:connector-curvature="0" /></clipPath><clipPath
       clipPathUnits="userSpaceOnUse"
       id="clipPath4130"><path
         d="M 0,0 630,0 630,57 0,57 0,0 z"
         id="path4132"
         inkscape:connector-curvature="0" /></clipPath><clipPath
       clipPathUnits="userSpaceOnUse"
       id="clipPath4154"><path
         d="m 363.551,44.306 83.676,0 0,-33.082 -83.676,0 0,33.082 z"
         id="path4156"
         inkscape:connector-curvature="0" /></clipPath><clipPath
       clipPathUnits="userSpaceOnUse"
       id="clipPath4162"><path
         d="M 0,0 630,0 630,57 0,57 0,0 z"
         id="path4164"
         inkscape:connector-curvature="0" /></clipPath><clipPath
       clipPathUnits="userSpaceOnUse"
       id="clipPath4166"><path
         d="M 0,0 630,0 630,57 0,57 0,0 z"
         id="path4168"
         inkscape:connector-curvature="0" /></clipPath><clipPath
       clipPathUnits="userSpaceOnUse"
       id="clipPath4196"><path
         d="M 0,0 630,0 630,57 0,57 0,0 z"
         id="path4198"
         inkscape:connector-curvature="0" /></clipPath><clipPath
       clipPathUnits="userSpaceOnUse"
       id="clipPath4220"><path
         d="m 544.52,43.658 83.676,0 0,-31.781 -83.676,0 0,31.781 z"
         id="path4222"
         inkscape:connector-curvature="0" /></clipPath><clipPath
       clipPathUnits="userSpaceOnUse"
       id="clipPath4228"><path
         d="M 0,0 630,0 630,57 0,57 0,0 z"
         id="path4230"
         inkscape:connector-curvature="0" /></clipPath><clipPath
       clipPathUnits="userSpaceOnUse"
       id="clipPath4232"><path
         d="M 0,0 630,0 630,57 0,57 0,0 z"
         id="path4234"
         inkscape:connector-curvature="0" /></clipPath><clipPath
       clipPathUnits="userSpaceOnUse"
       id="clipPath4262"><path
         d="M 0,0 630,0 630,57 0,57 0,0 z"
         id="path4264"
         inkscape:connector-curvature="0" /></clipPath><clipPath
       clipPathUnits="userSpaceOnUse"
       id="clipPath4292"><path
         d="M 0,0 630,0 630,57 0,57 0,0 z"
         id="path4294"
         inkscape:connector-curvature="0" /></clipPath><clipPath
       clipPathUnits="userSpaceOnUse"
       id="clipPath4310"><path
         d="M 0,0 630,0 630,57 0,57 0,0 z"
         id="path4312"
         inkscape:connector-curvature="0" /></clipPath><clipPath
       clipPathUnits="userSpaceOnUse"
       id="clipPath4338"><path
         d="M 0,0 630,0 630,57 0,57 0,0 z"
         id="path4340"
         inkscape:connector-curvature="0" /></clipPath><clipPath
       clipPathUnits="userSpaceOnUse"
       id="clipPath4356"><path
         d="M 0,0 630,0 630,57 0,57 0,0 z"
         id="path4358"
         inkscape:connector-curvature="0" /></clipPath><clipPath
       clipPathUnits="userSpaceOnUse"
       id="clipPath4384"><path
         d="M 0,0 630,0 630,57 0,57 0,0 z"
         id="path4386"
         inkscape:connector-curvature="0" /></clipPath><clipPath
       clipPathUnits="userSpaceOnUse"
       id="clipPath4402"><path
         d="M 0,0 630,0 630,57 0,57 0,0 z"
         id="path4404"
         inkscape:connector-curvature="0" /></clipPath></defs><sodipodi:namedview
     pagecolor="#ffffff"
     bordercolor="#666666"
     borderopacity="1"
     objecttolerance="10"
     gridtolerance="10"
     guidetolerance="10"
     inkscape:pageopacity="0"
     inkscape:pageshadow="2"
     inkscape:window-width="1918"
     inkscape:window-height="1154"
     id="namedview3864"
     showgrid="true"
     inkscape:document-units="cm"
     units="cm"
     inkscape:zoom="3.2141977"
     inkscape:cx="205.37141"
     inkscape:cy="22.974206"
     inkscape:window-x="0"
     inkscape:window-y="0"
     inkscape:window-maximized="1"
     inkscape:current-layer="g3870"
     inkscape:snap-bbox="false"
     inkscape:snap-global="true"
     inkscape:snap-bbox-edge-midpoints="false"
     inkscape:object-nodes="true"><inkscape:grid
       type="xygrid"
       id="grid4418"
       empspacing="5"
       visible="true"
       enabled="true"
       snapvisiblegridlinesonly="true"
       units="cm"
       spacingx="0.02cm"
       spacingy="0.02cm" /></sodipodi:namedview><g
     id="g3870"
     inkscape:groupmode="layer"
     inkscape:label="research_process"
     transform="matrix(1.25,0,0,-1.25,0,70.866259)"><path
       style="fill:#e6e6e6;fill-opacity:1;stroke:#000000;stroke-width:0.56692916;stroke-miterlimit:4;stroke-opacity:1;stroke-dasharray:none"
       d="m 36.850396,42.517696 c -2.944488,5.96e-4 -5.325,-2.355512 -5.325,-5.3 l 0,-12.05 c 0,-2.944488 2.380512,-5.324404 5.325,-5.325 l 45.715354,-0.0093 c 2.944488,-5.96e-4 5.3,2.380512 5.3,5.325 l 0,3.5 13.83543,-0.0022 0,-1.275 8.85,3.8 -8.85,3.775 0,-1.25 -13.83543,0.0022 0,3.5 c 0,2.944488 -2.355512,5.299404 -5.3,5.3 z"
       id="rect4416"
       inkscape:connector-curvature="0"
       sodipodi:nodetypes="sssssscccccccsss" /><path
       style="fill:#e6e6e6;fill-opacity:1;stroke:#000000;stroke-width:0.56692916;stroke-miterlimit:4;stroke-opacity:1;stroke-dasharray:none"
       d="m 115.87618,42.51986 c -2.94449,5.94e-4 -5.325,-2.355512 -5.325,-5.3 l 0,-12.05 c 0,-2.944488 2.38051,-5.324406 5.325,-5.325 l 46.0624,-0.0093 c 2.94448,-5.94e-4 5.3,2.380512 5.3,5.325 l 0,3.5 13.83268,-0.0022 0,-1.275 8.85,3.8 -8.85,3.775 0,-1.25 -13.83268,0.0022 0,3.5 c 0,2.944488 -2.35552,5.299406 -5.3,5.3 z"
       id="rect4416-1"
       inkscape:connector-curvature="0"
       sodipodi:nodetypes="sssssscccccccsss" /><text
       xml:space="preserve"
       style="font-size:7.19999981px;font-style:normal;font-variant:normal;font-weight:normal;font-stretch:normal;text-align:center;line-height:125%;letter-spacing:0px;word-spacing:0px;text-anchor:middle;fill:#000000;fill-opacity:1;stroke:none;font-family:CMU Sans Serif Demi Condensed;-inkscape-font-specification:CMU Sans Serif Demi Condensed"
       x="59.527565"
       y="-34.015923"
       id="text5134"
       sodipodi:linespacing="125%"
       transform="scale(1,-1)"><tspan
         sodipodi:role="line"
         x="59.527565"
         y="-34.015923"
         id="tspan5138"
         style="font-size:7.19999981px;font-style:normal;font-variant:normal;font-weight:500;font-stretch:normal;text-align:center;text-anchor:middle;font-family:CMU Sans Serif;-inkscape-font-specification:CMU Sans Serif Medium">Identification of</tspan><tspan
         sodipodi:role="line"
         x="59.527565"
         y="-25.015923"
         style="font-size:7.19999981px;font-style:normal;font-variant:normal;font-weight:500;font-stretch:normal;text-align:center;text-anchor:middle;font-family:CMU Sans Serif;-inkscape-font-specification:CMU Sans Serif Medium"
         id="tspan3091">potential sources</tspan></text>
<text
       xml:space="preserve"
       style="font-size:7.19999981px;font-style:normal;font-variant:normal;font-weight:normal;font-stretch:normal;text-align:center;line-height:125%;letter-spacing:0px;word-spacing:0px;text-anchor:middle;fill:#000000;fill-opacity:1;stroke:none;font-family:CMU Sans Serif Demi Condensed;-inkscape-font-specification:CMU Sans Serif Demi Condensed"
       x="138.89764"
       y="-34.015842"
       id="text5134-7"
       sodipodi:linespacing="125%"
       transform="scale(1,-1)"><tspan
         sodipodi:role="line"
         x="138.89764"
         y="-34.015842"
         id="tspan5138-2"
         style="font-size:7.19999981px;font-style:normal;font-variant:normal;font-weight:500;font-stretch:normal;text-align:center;text-anchor:middle;font-family:CMU Sans Serif;-inkscape-font-specification:CMU Sans Serif Medium">Filtering of</tspan><tspan
         sodipodi:role="line"
         x="138.89764"
         y="-25.015841"
         style="font-size:7.19999981px;font-style:normal;font-variant:normal;font-weight:500;font-stretch:normal;text-align:center;text-anchor:middle;font-family:CMU Sans Serif;-inkscape-font-specification:CMU Sans Serif Medium"
         id="tspan5172">relevant sources</tspan></text>
<path
       style="fill:#e6e6e6;fill-opacity:1;stroke:#000000;stroke-width:0.56692916;stroke-miterlimit:4;stroke-opacity:1;stroke-dasharray:none"
       d="m 195.23819,42.51052 c -2.94449,0 -5.325,-2.355512 -5.325,-5.3 l 0,-12.05 c 0,-2.944488 2.38051,-5.325 5.325,-5.325 l 31.9,0 c 2.94449,0 5.3,2.380512 5.3,5.325 l 0,3.5 13.82992,-0.0022 0,-1.275 8.85,3.8 -8.85,3.775 0,-1.25 -13.82992,0.0022 0,3.5 c 0,2.944488 -2.35551,5.3 -5.3,5.3 z"
       id="rect4416-1-1"
       inkscape:connector-curvature="0"
       sodipodi:nodetypes="sssssscccccccsss" /><text
       xml:space="preserve"
       style="font-size:7.19999981px;font-style:normal;font-variant:normal;font-weight:normal;font-stretch:normal;text-align:center;line-height:125%;letter-spacing:0px;word-spacing:0px;text-anchor:middle;fill:#000000;fill-opacity:1;stroke:none;font-family:CMU Sans Serif Demi Condensed;-inkscape-font-specification:CMU Sans Serif Demi Condensed"
       x="210.99751"
       y="-29.583359"
       id="text5134-7-7"
       sodipodi:linespacing="125%"
       transform="scale(1,-1)"><tspan
         sodipodi:role="line"
         x="210.99751"
         y="-29.583359"
         style="font-size:7.19999981px;font-style:normal;font-variant:normal;font-weight:500;font-stretch:normal;text-align:center;text-anchor:middle;font-family:CMU Sans Serif;-inkscape-font-specification:CMU Sans Serif Medium"
         id="tspan5172-3">Coding</tspan></text>
<rect
       style="fill:#e6e6e6;fill-opacity:1;stroke:#000000;stroke-width:0.56692916;stroke-miterlimit:4;stroke-opacity:1;stroke-dasharray:none"
       id="rect4416-1-84"
       width="59.527534"
       height="22.677164"
       x="255.11812"
       y="-42.521942"
       ry="5.3149605"
       transform="scale(1,-1)" /><text
       xml:space="preserve"
       style="font-size:7.19999981px;font-style:normal;font-variant:normal;font-weight:normal;font-stretch:normal;text-align:center;line-height:125%;letter-spacing:0px;word-spacing:0px;text-anchor:middle;fill:#000000;fill-opacity:1;stroke:none;font-family:CMU Sans Serif Demi Condensed;-inkscape-font-specification:CMU Sans Serif Demi Condensed"
       x="284.83868"
       y="-33.822163"
       id="text5134-7-2"
       sodipodi:linespacing="125%"
       transform="scale(1,-1)"><tspan
         sodipodi:role="line"
         x="284.83868"
         y="-33.822163"
         style="font-size:7.19999981px;font-style:normal;font-variant:normal;font-weight:500;font-stretch:normal;text-align:center;text-anchor:middle;font-family:CMU Sans Serif;-inkscape-font-specification:CMU Sans Serif Medium"
         id="tspan5254">Analysis of coding</tspan><tspan
         sodipodi:role="line"
         x="284.83868"
         y="-24.822163"
         style="font-size:7.19999981px;font-style:normal;font-variant:normal;font-weight:500;font-stretch:normal;text-align:center;text-anchor:middle;font-family:CMU Sans Serif;-inkscape-font-specification:CMU Sans Serif Medium"
         id="tspan3103">and aggregation</tspan></text>
</g></svg>